<?xml version="1.0" encoding="UTF-8"?>
<svg version="1.1" xmlns="http://www.w3.org/2000/svg" width="128" height="128">
<path d="M0 0 C14.66593153 10.19568513 25.60840641 23.74932626 29.74780273 41.46484375 C31.86603529 54.29763126 31.44584138 68.79991362 26.125 80.75 C25.76277344 81.62269531 25.40054688 82.49539062 25.02734375 83.39453125 C17.33536706 100.36902897 3.07751411 111.05081733 -13.734375 117.91796875 C-30.02500275 122.93228047 -49.3872321 120.84818754 -64.375 113.25 C-80.79373216 104.34772371 -91.48385123 89.95575147 -96.98828125 72.1484375 C-100.09059644 59.05712927 -99.35177869 43.05030624 -93.875 30.75 C-93.51277344 29.87730469 -93.15054688 29.00460938 -92.77734375 28.10546875 C-85.8549626 12.82929883 -73.23462165 1.78063924 -57.87109375 -4.47265625 C-38.93392049 -11.50790437 -17.48941603 -10.43527048 0 0 Z " fill="#8A21F4" transform="translate(97.875,8.25)"/>
<path d="M0 0 C4.32135817 0.61346103 7.56892922 2.1765653 11.40234375 4.23046875 C12.63433909 4.87516471 13.86677477 5.51901976 15.09960938 6.16210938 C17.02440918 7.17406174 18.94533914 8.19172981 20.85913086 9.22436523 C22.71868736 10.22386791 24.59005334 11.19741455 26.46484375 12.16796875 C27.574646 12.75860107 28.68444824 13.3492334 29.82788086 13.95776367 C33.79104766 15.25990783 35.25360974 14.70933496 39 13 C39.96115723 12.56679443 40.92231445 12.13358887 41.91259766 11.68725586 C42.90308105 11.20135986 43.89356445 10.71546387 44.9140625 10.21484375 C46.54988281 9.41916992 46.54988281 9.41916992 48.21875 8.60742188 C50.49742593 7.49029577 52.77607156 6.37310785 55.0546875 5.25585938 C56.14265625 4.72669922 57.230625 4.19753906 58.3515625 3.65234375 C59.33979004 3.16757568 60.32801758 2.68280762 61.34619141 2.18334961 C63.58804181 1.1836947 65.6043612 0.48615913 68 0 C68.09898615 4.91123589 68.17152247 9.82188938 68.21972656 14.73388672 C68.23982393 16.40423702 68.26710683 18.07451713 68.30175781 19.74462891 C68.35036119 22.1476372 68.37298656 24.54971434 68.390625 26.953125 C68.41127014 27.69806213 68.43191528 28.44299927 68.45318604 29.21051025 C68.45460522 32.50065785 68.35358237 34.53199389 66.340271 37.19683838 C63.3903618 39.46972176 61.79929337 39.50631672 58.1015625 39.51757812 C56.31951416 39.53649109 56.31951416 39.53649109 54.50146484 39.55578613 C53.22223145 39.54768921 51.94299805 39.53959229 50.625 39.53125 C49.30838379 39.5350769 47.99176758 39.53890381 46.63525391 39.54284668 C43.85104566 39.54873724 41.06735151 39.54019414 38.28320312 39.52148438 C34.71850667 39.49869376 31.15501482 39.5118194 27.59036255 39.53577423 C24.1851457 39.5537233 20.78025106 39.54114777 17.375 39.53125 C16.0957666 39.53934692 14.8165332 39.54744385 13.49853516 39.55578613 C12.31050293 39.54317749 11.1224707 39.53056885 9.8984375 39.51757812 C8.85349121 39.51439575 7.80854492 39.51121338 6.73193359 39.50793457 C3.28248727 38.86659649 2.09538327 37.77347589 0 35 C-0.34923596 32.17982573 -0.46849209 29.76279737 -0.390625 26.953125 C-0.38496521 26.18192322 -0.37930542 25.41072144 -0.37347412 24.6161499 C-0.35113589 22.16012721 -0.30094763 19.70557945 -0.25 17.25 C-0.22993154 15.58205237 -0.21168137 13.91408179 -0.1953125 12.24609375 C-0.15127992 8.16349677 -0.08227283 4.08199819 0 0 Z " fill="#FDFBFE" transform="translate(30,51)"/>
<path d="M0 0 C1.18803223 -0.01260864 2.37606445 -0.02521729 3.60009766 -0.03820801 C4.87933105 -0.03011108 6.15856445 -0.02201416 7.4765625 -0.01367188 C8.79317871 -0.01749878 10.10979492 -0.02132568 11.46630859 -0.02526855 C14.25051684 -0.03115911 17.03421099 -0.02261601 19.81835938 -0.00390625 C23.38305583 0.01888437 26.94654768 0.00575872 30.51119995 -0.01819611 C33.9164168 -0.03614518 37.32131144 -0.02356965 40.7265625 -0.01367188 C42.6454126 -0.02581726 42.6454126 -0.02581726 44.60302734 -0.03820801 C46.38507568 -0.01929504 46.38507568 -0.01929504 48.203125 0 C49.24807129 0.00318237 50.29301758 0.00636475 51.36962891 0.00964355 C54.80198615 0.64780434 56.01531191 1.76146064 58.1015625 4.51757812 C58.1015625 5.50757813 58.1015625 6.49757813 58.1015625 7.51757812 C57.45719238 7.8246167 56.81282227 8.13165527 56.14892578 8.44799805 C53.17434012 9.86605254 50.20044883 11.28555763 47.2265625 12.70507812 C46.21335938 13.18783203 45.20015625 13.67058594 44.15625 14.16796875 C43.15078125 14.64814453 42.1453125 15.12832031 41.109375 15.62304688 C40.10293945 16.09919434 39.09650391 16.5753418 38.05957031 17.06591797 C36.12231764 18.01663639 34.20796889 19.01588613 32.32324219 20.06689453 C31.46375977 20.54175293 30.60427734 21.01661133 29.71875 21.50585938 C28.96964355 21.94067627 28.22053711 22.37549316 27.44873047 22.82348633 C20.90333942 24.75905391 12.59006908 18.46608653 6.7409668 15.55004883 C4.78202059 14.57657875 2.81608915 13.61829787 0.84960938 12.66015625 C-0.39628924 12.04193357 -1.64174834 11.42282415 -2.88671875 10.80273438 C-4.01634033 10.24465088 -5.14596191 9.68656738 -6.30981445 9.11157227 C-8.8984375 7.51757812 -8.8984375 7.51757812 -9.8984375 4.51757812 C-6.75420383 0.725158 -4.8868782 0.01488294 0 0 Z " fill="#FDFBFE" transform="translate(39.8984375,37.482421875)"/>
</svg>
